<svg width="132" height="41" viewBox="0 0 132 41" fill="none" xmlns="http://www.w3.org/2000/svg">
<g clip-path="url(#clip0_171_2536)">
<path d="M123.281 18.3256C123.281 15.6832 121.153 13.541 118.529 13.541C115.905 13.541 113.778 15.6832 113.778 18.3256V19.5605C113.778 22.203 115.905 24.3451 118.529 24.3451C121.153 24.3451 123.281 22.203 123.281 19.5605V18.3256Z" fill="#7540B2"/>
<path d="M120.619 0H108.814L107.211 2.46267L103.019 8.3555C104.599 8.58233 106.109 9.16147 107.438 10.0507C108.768 10.9399 109.884 12.1168 110.704 13.4954L118.526 2.46267L118.554 2.431L128.22 16.1235H132L120.619 0Z" fill="#7540B2"/>
<path d="M131.2 29.5979C131.2 29.8999 131.142 30.199 131.027 30.4782C130.913 30.7573 130.745 31.011 130.533 31.2247C130.321 31.4383 130.07 31.6079 129.793 31.7236C129.516 31.8392 129.219 31.8988 128.919 31.8988H118.624C118.018 31.8988 117.437 31.6564 117.008 31.2249C116.58 30.7934 116.339 30.2081 116.339 29.5979C116.339 28.9877 116.58 28.4025 117.008 27.971C117.437 27.5395 118.018 27.2971 118.624 27.2971H128.887C129.19 27.2929 129.49 27.3493 129.771 27.4631C130.051 27.5769 130.307 27.7458 130.522 27.9599C130.737 28.174 130.908 28.4291 131.024 28.7103C131.141 28.9915 131.2 29.2933 131.2 29.5979Z" fill="#7540B2"/>
<path d="M24.2341 21.5093C24.2341 28.0213 20.0419 32.4155 14.2149 32.4155C11.9327 32.4509 9.67899 31.9025 7.66465 30.8217V40.9961H2.95549V17.5866C2.95549 15.3034 2.09956 15.0008 0 15.2577V11.2505C3.84279 10.6032 6.28824 11.2927 7.06728 14.3957C8.81401 12.0667 11.3887 10.8776 14.6865 10.8776C20.3389 10.8459 24.2341 15.2577 24.2341 21.5093ZM19.483 21.4671C19.483 17.4143 17.2123 15.0008 13.6594 15.0008C9.84807 15.0008 7.66465 17.6289 7.66465 21.4671V26.6C9.41976 27.6787 11.4322 28.2586 13.4882 28.2782C17.1703 28.2782 19.483 25.7803 19.483 21.4671Z" fill="#7540B2"/>
<path d="M46.3622 23.0649H31.1622C31.7177 26.4704 34.2434 28.3244 38.3552 28.3244C40.5982 28.3449 42.8189 27.8744 44.8635 26.9453L45.8033 30.6534C42.8513 31.9868 40.7098 32.4125 37.9709 32.4125C30.9491 32.4125 26.4111 28.0993 26.4111 21.633C26.4111 15.1667 30.6033 10.8535 37.1151 10.8535C42.8513 10.8535 46.6626 14.4772 46.6626 19.9091C46.6608 20.9682 46.5602 22.0247 46.3622 23.0649ZM31.2496 19.6136H42.5508C42.5508 16.2081 40.067 14.829 37.157 14.829C34.0303 14.829 31.8889 16.5106 31.2496 19.6136Z" fill="#7540B2"/>
<path d="M66.4239 12.1973L64.7121 16.2923C63.5619 15.5973 62.242 15.2391 60.9007 15.258C58.2038 15.258 55.8492 16.9854 55.8492 20.5633V32.0323H51.14V17.587C51.14 15.3038 50.2841 15.0012 48.1846 15.258V11.2509C51.9959 10.6458 54.4343 11.2509 55.2483 14.2659C55.878 13.2028 56.7769 12.3273 57.8529 11.729C58.929 11.1306 60.1435 10.8308 61.3723 10.8604C63.1425 10.8596 64.8828 11.3201 66.4239 12.1973Z" fill="#7540B2"/>
<path d="M66.0684 21.5976C66.0684 15.3037 70.6483 10.8604 77.1146 10.8604C82.1662 10.8604 86.1452 13.8789 87.1303 18.4489H82.7216C81.7784 16.2501 79.8535 15.0012 77.1321 15.0012C73.4919 15.0012 70.9207 17.6292 70.9207 21.5976C70.9207 25.566 73.4919 28.282 77.174 28.282C80.0002 28.282 81.7959 26.9909 82.6972 24.5774H87.2386C86.2116 29.7491 82.2709 32.4228 77.1356 32.4228C70.6902 32.4193 66.0684 27.8071 66.0684 21.5976Z" fill="#7540B2"/>
<path d="M109.121 19.5291V32.0324H104.412V19.8281C104.412 16.7251 102.613 15.0013 99.703 15.0013C96.3214 15.0013 94.3511 17.5449 94.3511 21.0383V32.0324H89.6279V1.85059H94.3371V13.5342C95.2107 12.6656 96.248 11.9817 97.3878 11.5225C98.5277 11.0633 99.7472 10.8383 100.975 10.8605C105.953 10.8464 109.121 14.3645 109.121 19.5291Z" fill="#7540B2"/>
</g>
<defs>
<clipPath id="clip0_171_2536">
<rect width="132" height="41" fill="white"/>
</clipPath>
</defs>
</svg>
