<?xml version="1.0" encoding="utf-8"?>
<!-- Generator: Adobe Illustrator 26.0.1, SVG Export Plug-In . SVG Version: 6.00 Build 0)  -->
<svg version="1.1" id="Layer_1" xmlns="http://www.w3.org/2000/svg" xmlns:xlink="http://www.w3.org/1999/xlink" x="0px" y="0px"
	 viewBox="0 0 381.12 354.28" style="enable-background:new 0 0 381.12 354.28;" xml:space="preserve">
<style type="text/css">
	.st0{fill:#7540B2;}
</style>
<g>
	<path class="st0" d="M236.51,256.78L236.51,256.78c-27.23,0-49.31-22.08-49.31-49.31v-12.73c0-27.23,22.08-49.31,49.31-49.31h0
		c27.23,0,49.31,22.08,49.31,49.31v12.73C285.81,234.7,263.74,256.78,236.51,256.78z"/>
	<g>
		<path class="st0" d="M370.06,320.02c0,12.1-9.79,21.89-21.89,21.89H238.22c-12.1,0-21.89-9.79-21.89-21.89
			c0-12.08,9.79-21.89,21.89-21.89h109.94C360.26,298.12,370.06,307.94,370.06,320.02z"/>
	</g>
	<g>
		<polygon class="st0" points="373.88,172.16 334.67,172.16 234.37,30.99 234.08,31.35 125.51,183.54 125.18,183.54 154.09,348.57 
			80.84,348.57 51.9,183.54 8.04,183.54 116.64,31.35 133.26,5.9 255.76,5.9 		"/>
	</g>
</g>
</svg>
