<?xml version="1.0" encoding="utf-8"?>
<!-- Generator: Adobe Illustrator 26.0.1, SVG Export Plug-In . SVG Version: 6.00 Build 0)  -->
<svg version="1.1" id="Layer_1" xmlns="http://www.w3.org/2000/svg" xmlns:xlink="http://www.w3.org/1999/xlink" x="0px" y="0px"
	 viewBox="0 0 706.49 230.96" style="enable-background:new 0 0 706.49 230.96;" xml:space="preserve">
<style type="text/css">
	.st0{fill:#7540B2;}
</style>
<g>
	<g>
		<path class="st0" d="M625.98,134.83L625.98,134.83c-13.64,0-24.7-11.06-24.7-24.7v-6.38c0-13.64,11.06-24.7,24.7-24.7l0,0
			c13.64,0,24.7,11.06,24.7,24.7v6.38C650.68,123.77,639.62,134.83,625.98,134.83z"/>
		<path class="st0" d="M636.83,9.17h-61.36l-8.33,12.75l-21.72,30.4c17.37,2.77,31.36,12.34,39.89,26.54l40.66-56.94l0.14-0.17
			l50.24,70.7h19.64L636.83,9.17z"/>
		<g>
			<path class="st0" d="M691.75,161.92c0,6.56-5.31,11.87-11.87,11.87h-53.34c-6.56,0-11.87-5.31-11.87-11.87
				c0-6.55,5.31-11.87,11.87-11.87h53.34C686.44,150.05,691.75,155.38,691.75,161.92z"/>
		</g>
	</g>
	<g>
		<path class="st0" d="M135.88,120.18c0,33.6-21.81,56.3-52.07,56.3c-13.13,0-24.03-2.89-34.05-8.23v52.52H25.29V99.94
			c0-11.79-4.45-13.35-15.35-12.02V67.22c20.03-3.34,32.71,0.22,36.72,16.24c9.12-12.02,22.47-18.25,39.61-18.25
			C115.63,65.22,135.88,87.92,135.88,120.18z M111.18,119.96c0-20.92-11.79-33.38-30.26-33.38c-19.8,0-31.15,13.57-31.15,33.38
			v26.48c10.9,6.45,21.36,8.68,30.26,8.68C99.16,155.12,111.18,142.21,111.18,119.96z"/>
		<path class="st0" d="M250.88,128.2h-79c2.89,17.58,16.02,27.15,37.38,27.15c11.35,0,23.59-2.22,33.82-7.12l4.9,19.14
			c-15.35,6.9-26.48,9.12-40.72,9.12c-36.49,0-60.08-22.25-60.08-55.63c0-33.38,21.81-55.63,55.63-55.63
			c29.82,0,49.62,18.69,49.62,46.73C252.44,116.85,251.99,122.41,250.88,128.2z M172.33,110.39h58.75c0-17.58-12.91-24.7-28.04-24.7
			C186.79,85.69,175.67,94.37,172.33,110.39z"/>
		<path class="st0" d="M355.16,72.12l-8.9,21.14c-6.68-3.78-12.46-5.34-19.8-5.34c-14.02,0-26.26,8.9-26.26,27.37v59.19h-24.48
			V99.94c0-11.79-4.45-13.35-15.35-12.02V67.22c19.8-3.11,32.49,0,36.72,15.58C304.2,71.01,316,65.22,328.9,65.22
			C338.47,65.22,346.26,67.45,355.16,72.12z"/>
		<path class="st0" d="M353.3,120.63c0-32.49,23.81-55.41,57.41-55.41c26.26,0,46.95,15.58,52.07,39.16h-22.92
			c-4.9-11.35-14.91-17.8-29.15-17.8c-18.91,0-32.27,13.57-32.27,34.05c0,20.69,13.35,34.49,32.49,34.49
			c14.69,0,24.03-6.68,28.71-19.14h23.59c-5.34,26.7-25.81,40.5-52.52,40.5C377.33,176.48,353.3,152.67,353.3,120.63z"/>
		<path class="st0" d="M577.08,109.95v64.53H552.6v-62.97c0-16.02-9.35-24.92-24.48-24.92c-17.58,0-27.82,13.13-27.82,31.15v56.74
			h-24.48V18.71h24.48v60.3c9.57-8.9,20.25-13.8,34.49-13.8C560.61,65.22,577.08,83.25,577.08,109.95z"/>
	</g>
</g>
</svg>
