<svg width="20" height="20" viewBox="0 0 20 20" fill="none" xmlns="http://www.w3.org/2000/svg">
<path d="M10.0068 5.50781C7.52246 5.50781 5.51855 7.51172 5.51855 9.99609C5.51855 12.4805 7.52246 14.4844 10.0068 14.4844C12.4912 14.4844 14.4951 12.4805 14.4951 9.99609C14.4951 7.51172 12.4912 5.50781 10.0068 5.50781ZM10.0068 12.9141C8.40137 12.9141 7.08887 11.6055 7.08887 9.99609C7.08887 8.38672 8.39746 7.07812 10.0068 7.07812C11.6162 7.07812 12.9248 8.38672 12.9248 9.99609C12.9248 11.6055 11.6123 12.9141 10.0068 12.9141V12.9141ZM15.7256 5.32422C15.7256 5.90625 15.2568 6.37109 14.6787 6.37109C14.0967 6.37109 13.6318 5.90234 13.6318 5.32422C13.6318 4.74609 14.1006 4.27734 14.6787 4.27734C15.2568 4.27734 15.7256 4.74609 15.7256 5.32422ZM18.6982 6.38672C18.6318 4.98438 18.3115 3.74219 17.2842 2.71875C16.2607 1.69531 15.0186 1.375 13.6162 1.30469C12.1709 1.22266 7.83887 1.22266 6.39355 1.30469C4.99512 1.37109 3.75293 1.69141 2.72559 2.71484C1.69824 3.73828 1.38184 4.98047 1.31152 6.38281C1.22949 7.82812 1.22949 12.1602 1.31152 13.6055C1.37793 15.0078 1.69824 16.25 2.72559 17.2734C3.75293 18.2969 4.99121 18.6172 6.39355 18.6875C7.83887 18.7695 12.1709 18.7695 13.6162 18.6875C15.0186 18.6211 16.2607 18.3008 17.2842 17.2734C18.3076 16.25 18.6279 15.0078 18.6982 13.6055C18.7803 12.1602 18.7803 7.83203 18.6982 6.38672V6.38672ZM16.8311 15.1562C16.5264 15.9219 15.9365 16.5117 15.167 16.8203C14.0146 17.2773 11.2803 17.1719 10.0068 17.1719C8.7334 17.1719 5.99512 17.2734 4.84668 16.8203C4.08105 16.5156 3.49121 15.9258 3.18262 15.1562C2.72559 14.0039 2.83105 11.2695 2.83105 9.99609C2.83105 8.72266 2.72949 5.98437 3.18262 4.83594C3.4873 4.07031 4.07715 3.48047 4.84668 3.17187C5.99902 2.71484 8.7334 2.82031 10.0068 2.82031C11.2803 2.82031 14.0186 2.71875 15.167 3.17187C15.9326 3.47656 16.5225 4.06641 16.8311 4.83594C17.2881 5.98828 17.1826 8.72266 17.1826 9.99609C17.1826 11.2695 17.2881 14.0078 16.8311 15.1562Z" fill="white"/>
</svg>
