<svg width="256" height="64" viewBox="0 0 256 64" fill="none" xmlns="http://www.w3.org/2000/svg">
<path d="M106.923 11.7712H76.9917V18.7717H88.428V52.2086H95.5758V18.7717H106.923V11.7712Z" fill="#394450"/>
<path d="M130.868 46.0384C130.779 46.1305 130.332 46.2226 130.064 46.2226C128.992 46.2226 128.456 45.6699 128.456 44.5647V34.4323C128.456 28.0765 123.631 23.4709 117.019 23.4709C110.05 23.4709 106.387 28.5371 106.208 28.7212L105.94 29.0897L110.229 33.6032L110.586 33.0506C110.586 33.0506 113.177 29.6423 116.93 29.6423C119.61 29.6423 121.576 31.3004 121.755 33.6032L112.73 35.1691C107.727 36.0902 104.689 39.4985 104.689 44.1962C104.689 48.8939 108.799 52.6704 113.981 52.6704C118.895 52.6704 121.665 50.1835 122.827 48.8018C123.452 50.2755 125.239 52.6704 129.26 52.6704C130.421 52.6704 131.315 52.3942 131.315 52.3942L131.672 52.3019V45.5779L130.868 46.0384ZM115.053 46.7752C112.82 46.7752 111.301 45.4858 111.301 43.7356C111.301 42.2618 112.641 41.0643 114.875 40.6958L121.844 39.4062V39.5905C121.844 43.6435 118.895 46.7752 115.053 46.7752Z" fill="#394450"/>
<path d="M141.499 11.7718H134.888V52.209H141.499V11.7718Z" fill="#394450"/>
<path d="M154.187 11.7718H147.576V52.209H154.187V11.7718Z" fill="#394450"/>
<path d="M178.15 38.1165C178.15 42.2615 175.559 45.117 171.717 45.117C168.411 45.117 166.267 42.8142 166.267 39.2219V24.1155H159.745V39.2219C159.745 46.5907 164.122 51.5649 170.645 51.5649C174.397 51.5649 176.899 49.5385 178.239 48.1568V49.9069C178.239 54.6046 175.559 57.4601 171.181 57.4601C166.892 57.4601 164.301 53.7756 164.301 53.7756L163.944 53.223L159.298 57.6442L159.566 58.1048C159.745 58.3812 163.586 64 171.181 64C179.044 64 184.763 58.1048 184.763 49.999V24.1155H178.15V38.1165Z" fill="#394450"/>
<path d="M201.023 11.22C195.484 11.22 192.268 14.7202 192.268 20.7996V24.1158H188.158V30.6557H192.268V52.2098H198.879V30.6557H205.133V24.1158H198.879V21.3524C198.879 18.9573 199.951 17.7599 202.095 17.7599C203.525 17.7599 204.777 18.4968 204.777 18.4968L205.67 19.0496V12.3253L205.312 12.1411C205.312 12.049 203.614 11.22 201.023 11.22Z" fill="#394450"/>
<path d="M221.125 23.4709C213.173 23.4709 206.92 29.9188 206.92 38.1168C206.92 46.3146 213.173 52.7625 221.125 52.7625C229.078 52.7625 235.331 46.3146 235.331 38.1168C235.331 29.9188 229.078 23.4709 221.125 23.4709ZM221.125 46.2226C216.748 46.2226 213.531 42.8145 213.531 38.1168C213.531 33.4191 216.748 30.0108 221.125 30.0108C225.504 30.0108 228.72 33.4191 228.72 38.1168C228.72 42.8145 225.504 46.2226 221.125 46.2226Z" fill="#394450"/>
<path d="M253.201 23.4709C249.627 23.4709 247.127 25.3131 245.876 26.6948V24.0235H239.264V52.1178H245.876V37.7483C245.876 33.5112 248.734 30.1952 252.397 30.1952C253.38 30.1952 254.452 30.4714 254.452 30.4714L255.166 30.6557V23.4709H253.201Z" fill="#394450"/>
<path d="M29.3474 61.2766C45.5164 61.2766 58.624 48.169 58.624 32C58.624 15.831 45.5164 2.72339 29.3474 2.72339C13.1784 2.72339 0.0708008 15.831 0.0708008 32C0.0708008 48.169 13.1784 61.2766 29.3474 61.2766Z" fill="white"/>
<mask id="mask0_231_70" style="mask-type:alpha" maskUnits="userSpaceOnUse" x="0" y="2" width="59" height="60">
<path d="M29.3474 61.2766C45.5164 61.2766 58.624 48.169 58.624 32C58.624 15.831 45.5164 2.72339 29.3474 2.72339C13.1784 2.72339 0.0708008 15.831 0.0708008 32C0.0708008 48.169 13.1784 61.2766 29.3474 61.2766Z" fill="#93B91A"/>
</mask>
<g mask="url(#mask0_231_70)">
<path d="M31.4354 61.205C35.9031 60.8868 40.2382 59.5473 44.1067 57.2899C47.9752 55.0325 51.2741 51.9173 53.7491 48.1842L31.4354 41.8665V61.205Z" fill="#E0645C"/>
<path d="M58.5073 29.3744C57.8556 22.0906 54.5015 15.3143 49.1049 10.3791C43.7084 5.44386 36.6602 2.70697 29.3472 2.70697C22.0343 2.70697 14.9861 5.44386 9.58955 10.3791C4.19301 15.3143 0.838871 22.0906 0.187134 29.3744L29.3472 37.6188L58.5073 29.3744ZM26.5961 28.1826H32.0356V33.6221H26.5961V28.1826Z" fill="#E0645C"/>
<path d="M3.12661 45.0387L22.8863 39.4648L0.0708008 32.9947C0.213955 37.1821 1.25613 41.2896 3.12661 45.0387V45.0387Z" fill="#E0645C"/>
<path d="M35.8083 39.4648L55.5232 45.0566C57.3917 41.3077 58.428 37.1993 58.5611 33.0126L35.8083 39.4648Z" fill="#E0645C"/>
<path d="M4.94568 48.1842C7.42402 51.9182 10.726 55.0337 14.5976 57.2911C18.4691 59.5484 22.807 60.8874 27.2773 61.205V41.8665L4.94568 48.1842Z" fill="#E0645C"/>
</g>
</svg>
