<svg width="129" height="92" viewBox="0 0 129 92" fill="none" xmlns="http://www.w3.org/2000/svg">
<path d="M22.451 52.8805H0.948608V57.9096H9.16443V81.9305H14.2994V57.9096H22.451V52.8805Z" fill="#394450"/>
<path d="M39.653 77.4979C39.5889 77.5641 39.2679 77.6302 39.0753 77.6302C38.3051 77.6302 37.92 77.2332 37.92 76.4392V69.1602C37.92 64.5942 34.4539 61.2855 29.7041 61.2855C24.6976 61.2855 22.066 64.925 21.9375 65.0573L21.745 65.3221L24.8259 68.5646L25.0827 68.1676C25.0827 68.1676 26.9441 65.7191 29.6399 65.7191C31.5655 65.7191 32.9776 66.9102 33.106 68.5646L26.6232 69.6895C23.0288 70.3512 20.8464 72.7997 20.8464 76.1745C20.8464 79.5493 23.7989 82.2624 27.5218 82.2624C31.052 82.2624 33.0419 80.4757 33.8762 79.4831C34.3256 80.5419 35.6093 82.2624 38.4977 82.2624C39.3321 82.2624 39.974 82.0639 39.974 82.0639L40.2307 81.9976V77.1671L39.653 77.4979ZM28.292 78.0272C26.6873 78.0272 25.5962 77.1009 25.5962 75.8436C25.5962 74.7849 26.559 73.9246 28.1637 73.6598L33.1702 72.7334V72.8658C33.1702 75.7775 31.052 78.0272 28.292 78.0272Z" fill="#394450"/>
<path d="M47.2906 52.8809H42.5408V81.9308H47.2906V52.8809Z" fill="#394450"/>
<path d="M56.4056 52.8809H51.6558V81.9308H56.4056V52.8809Z" fill="#394450"/>
<path d="M73.6202 71.8069C73.6202 74.7846 71.7589 76.836 68.9988 76.836C66.624 76.836 65.0835 75.1817 65.0835 72.601V61.7486H60.3979V72.601C60.3979 77.8947 63.5429 81.4681 68.2286 81.4681C70.9244 81.4681 72.7217 80.0124 73.6845 79.0198V80.2771C73.6845 83.6519 71.7589 85.7032 68.6137 85.7032C65.5327 85.7032 63.6714 83.0563 63.6714 83.0563L63.4146 82.6593L60.077 85.8355L60.2694 86.1664C60.3979 86.3649 63.1579 90.4015 68.6137 90.4015C74.2622 90.4015 78.3707 86.1664 78.3707 80.3432V61.7486H73.6202V71.8069Z" fill="#394450"/>
<path d="M90.0524 52.4845C86.0728 52.4845 83.7623 54.9991 83.7623 59.3665V61.7488H80.8101V66.4471H83.7623V81.9315H88.512V66.4471H93.0045V61.7488H88.512V59.7636C88.512 58.043 89.2822 57.1828 90.8226 57.1828C91.8499 57.1828 92.7487 57.7121 92.7487 57.7121L93.3903 58.1093V53.2786L93.1331 53.1463C93.1331 53.0801 91.9135 52.4845 90.0524 52.4845Z" fill="#394450"/>
<path d="M104.493 61.2855C98.7811 61.2855 94.2885 65.9176 94.2885 71.807C94.2885 77.6963 98.7811 82.3285 104.493 82.3285C110.207 82.3285 114.699 77.6963 114.699 71.807C114.699 65.9176 110.207 61.2855 104.493 61.2855ZM104.493 77.6302C101.349 77.6302 99.0382 75.1818 99.0382 71.807C99.0382 68.4322 101.349 65.9838 104.493 65.9838C107.639 65.9838 109.949 68.4322 109.949 71.807C109.949 75.1818 107.639 77.6302 104.493 77.6302Z" fill="#394450"/>
<path d="M127.537 61.2855C124.969 61.2855 123.173 62.609 122.274 63.6016V61.6825H117.524V81.8653H122.274V71.5423C122.274 68.4984 124.327 66.1162 126.959 66.1162C127.665 66.1162 128.436 66.3146 128.436 66.3146L128.949 66.4471V61.2855H127.537Z" fill="#394450"/>
<path d="M64.746 43.5133C76.4813 43.5133 85.9947 33.9999 85.9947 22.2646C85.9947 10.5292 76.4813 1.01587 64.746 1.01587C53.0107 1.01587 43.4973 10.5292 43.4973 22.2646C43.4973 33.9999 53.0107 43.5133 64.746 43.5133Z" fill="white"/>
<mask id="mask0_231_78" style="mask-type:alpha" maskUnits="userSpaceOnUse" x="43" y="1" width="43" height="43">
<path d="M64.746 43.5133C76.4813 43.5133 85.9947 33.9999 85.9947 22.2646C85.9947 10.5292 76.4813 1.01587 64.746 1.01587C53.0107 1.01587 43.4973 10.5292 43.4973 22.2646C43.4973 33.9999 53.0107 43.5133 64.746 43.5133Z" fill="#93B91A"/>
</mask>
<g mask="url(#mask0_231_78)">
<path d="M66.2614 43.4614C69.5041 43.2304 72.6504 42.2582 75.4581 40.6198C78.2659 38.9814 80.6601 36.7204 82.4565 34.011L66.2614 29.4257V43.4614Z" fill="#E0645C"/>
<path d="M85.91 20.359C85.437 15.0724 83.0026 10.1543 79.0859 6.57233C75.1691 2.99038 70.0536 1.00397 64.7459 1.00397C59.4382 1.00397 54.3227 2.99038 50.406 6.57233C46.4892 10.1543 44.0548 15.0724 43.5818 20.359L64.7459 26.3427L85.91 20.359ZM62.7492 19.4939H66.6971V23.4419H62.7492V19.4939Z" fill="#E0645C"/>
<path d="M45.7152 31.728L60.0566 27.6825L43.4973 22.9866C43.6012 26.0257 44.3576 29.0069 45.7152 31.728Z" fill="#E0645C"/>
<path d="M69.4353 27.6825L83.7442 31.741C85.1004 29.0201 85.8525 26.0382 85.9491 22.9996L69.4353 27.6825Z" fill="#E0645C"/>
<path d="M47.0355 34.011C48.8342 36.7211 51.2308 38.9823 54.0407 40.6207C56.8506 42.259 59.999 43.2309 63.2435 43.4614V29.4257L47.0355 34.011Z" fill="#E0645C"/>
</g>
</svg>
