<svg width="64" height="64" viewBox="0 0 64 64" fill="none" xmlns="http://www.w3.org/2000/svg">
<path d="M32 64C49.6731 64 64 49.6731 64 32C64 14.3269 49.6731 0 32 0C14.3269 0 0 14.3269 0 32C0 49.6731 14.3269 64 32 64Z" fill="white"/>
<mask id="mask0_231_74" style="mask-type:alpha" maskUnits="userSpaceOnUse" x="0" y="0" width="64" height="64">
<path d="M32 64C49.6731 64 64 49.6731 64 32C64 14.3269 49.6731 0 32 0C14.3269 0 0 14.3269 0 32C0 49.6731 14.3269 64 32 64Z" fill="#93B91A"/>
</mask>
<g mask="url(#mask0_231_74)">
<path d="M34.2822 63.9218C39.1655 63.5739 43.9038 62.1099 48.1322 59.6425C52.3606 57.1751 55.9663 53.7701 58.6716 49.6898L34.2822 42.7844V63.9218Z" fill="#E0645C"/>
<path d="M63.8725 29.1302C63.1602 21.1688 59.494 13.7622 53.5955 8.36787C47.6969 2.97354 39.9931 -0.0179443 31.9999 -0.0179443C24.0066 -0.0179443 16.3028 2.97354 10.4043 8.36787C4.50571 13.7622 0.839561 21.1688 0.127197 29.1302L31.9999 38.1415L63.8725 29.1302ZM28.9928 27.8275H34.9383V33.773H28.9928V27.8275Z" fill="#E0645C"/>
<path d="M3.34007 46.2517L24.9379 40.1592L0 33.0873C0.156471 37.6641 1.29559 42.1538 3.34007 46.2517Z" fill="#E0645C"/>
<path d="M39.062 40.1592L60.6108 46.2712C62.6532 42.1736 63.7858 37.683 63.9313 33.1069L39.062 40.1592Z" fill="#E0645C"/>
<path d="M5.32837 49.6898C8.03726 53.7711 11.6464 57.1764 15.8781 59.6438C20.1098 62.1111 24.8512 63.5747 29.7373 63.9218V42.7844L5.32837 49.6898Z" fill="#E0645C"/>
</g>
</svg>
