<svg width="256" height="64" viewBox="0 0 256 64" fill="none" xmlns="http://www.w3.org/2000/svg">
<path d="M106.923 11.7712H76.9917V18.7717H88.428V52.2086H95.5758V18.7717H106.923V11.7712Z" fill="white"/>
<path d="M130.868 46.0384C130.779 46.1305 130.332 46.2226 130.064 46.2226C128.992 46.2226 128.456 45.6699 128.456 44.5647V34.4323C128.456 28.0765 123.631 23.4709 117.019 23.4709C110.05 23.4709 106.387 28.5371 106.208 28.7212L105.94 29.0897L110.229 33.6032L110.586 33.0506C110.586 33.0506 113.177 29.6423 116.93 29.6423C119.61 29.6423 121.576 31.3004 121.755 33.6032L112.73 35.1691C107.727 36.0902 104.689 39.4985 104.689 44.1962C104.689 48.8939 108.799 52.6704 113.981 52.6704C118.895 52.6704 121.665 50.1835 122.827 48.8018C123.452 50.2755 125.239 52.6704 129.26 52.6704C130.421 52.6704 131.315 52.3942 131.315 52.3942L131.672 52.3019V45.5779L130.868 46.0384ZM115.053 46.7752C112.82 46.7752 111.301 45.4858 111.301 43.7356C111.301 42.2618 112.641 41.0643 114.875 40.6958L121.844 39.4062V39.5905C121.844 43.6435 118.895 46.7752 115.053 46.7752Z" fill="white"/>
<path d="M141.499 11.7718H134.888V52.209H141.499V11.7718Z" fill="white"/>
<path d="M154.187 11.7718H147.576V52.209H154.187V11.7718Z" fill="white"/>
<path d="M178.15 38.1165C178.15 42.2616 175.559 45.117 171.717 45.117C168.411 45.117 166.267 42.8142 166.267 39.222V24.1155H159.745V39.222C159.745 46.5908 164.122 51.5649 170.645 51.5649C174.397 51.5649 176.899 49.5385 178.239 48.1568V49.907C178.239 54.6047 175.559 57.4601 171.181 57.4601C166.892 57.4601 164.301 53.7756 164.301 53.7756L163.944 53.223L159.298 57.6442L159.566 58.1048C159.745 58.3812 163.586 64 171.181 64C179.044 64 184.763 58.1048 184.763 49.999V24.1155H178.15V38.1165Z" fill="white"/>
<path d="M201.023 11.22C195.484 11.22 192.268 14.7203 192.268 20.7996V24.1158H188.158V30.6557H192.268V52.2099H198.879V30.6557H205.133V24.1158H198.879V21.3524C198.879 18.9573 199.951 17.76 202.095 17.76C203.526 17.76 204.777 18.4968 204.777 18.4968L205.67 19.0496V12.3253L205.312 12.1411C205.312 12.049 203.614 11.22 201.023 11.22Z" fill="white"/>
<path d="M221.125 23.4709C213.174 23.4709 206.92 29.9187 206.92 38.1168C206.92 46.3146 213.174 52.7625 221.125 52.7625C229.078 52.7625 235.331 46.3146 235.331 38.1168C235.331 29.9187 229.078 23.4709 221.125 23.4709ZM221.125 46.2225C216.748 46.2225 213.532 42.8145 213.532 38.1168C213.532 33.4191 216.748 30.0108 221.125 30.0108C225.504 30.0108 228.72 33.4191 228.72 38.1168C228.72 42.8145 225.504 46.2225 221.125 46.2225Z" fill="white"/>
<path d="M253.201 23.4709C249.627 23.4709 247.127 25.3131 245.876 26.6948V24.0235H239.264V52.1178H245.876V37.7483C245.876 33.5112 248.734 30.1952 252.397 30.1952C253.38 30.1952 254.452 30.4714 254.452 30.4714L255.166 30.6557V23.4709H253.201Z" fill="white"/>
<mask id="mask0_231_72" style="mask-type:alpha" maskUnits="userSpaceOnUse" x="0" y="2" width="59" height="60">
<path d="M29.3474 61.2766C45.5164 61.2766 58.624 48.169 58.624 32C58.624 15.831 45.5164 2.7234 29.3474 2.7234C13.1784 2.7234 0.0708008 15.831 0.0708008 32C0.0708008 48.169 13.1784 61.2766 29.3474 61.2766Z" fill="#93B91A"/>
</mask>
<g mask="url(#mask0_231_72)">
<path d="M31.4354 61.2051C35.9031 60.8868 40.2381 59.5474 44.1066 57.29C47.9752 55.0325 51.274 51.9173 53.749 48.1843L31.4354 41.8665V61.2051Z" fill="white"/>
<path d="M58.5074 29.3744C57.8557 22.0906 54.5015 15.3144 49.105 10.3791C43.7084 5.44387 36.6602 2.70699 29.3473 2.70699C22.0343 2.70699 14.9862 5.44387 9.58961 10.3791C4.19307 15.3144 0.838932 22.0906 0.187195 29.3744L29.3473 37.6188L58.5074 29.3744ZM26.5962 28.1826H32.0357V33.6221H26.5962V28.1826Z" fill="white"/>
<path d="M3.12661 45.0388L22.8863 39.4648L0.0708008 32.9948C0.213955 37.1821 1.25613 41.2897 3.12661 45.0388Z" fill="white"/>
<path d="M35.8084 39.4648L55.5233 45.0567C57.3918 41.3077 58.4281 37.1993 58.5612 33.0127L35.8084 39.4648Z" fill="white"/>
<path d="M4.94568 48.1843C7.42402 51.9182 10.726 55.0338 14.5976 57.2911C18.4691 59.5485 22.807 60.8875 27.2773 61.2051V41.8665L4.94568 48.1843Z" fill="white"/>
</g>
</svg>
